<svg width="24" height="23" viewBox="0 0 24 23" fill="none" xmlns="http://www.w3.org/2000/svg">
<path d="M0.923077 0H19.3846V1.09524H20.3077V2.19048H21.2308V3.28571H22.1538V4.38095H23.0769V5.47619H24V23H4.61538V21.9048H3.69231V20.8095H2.76923V19.7143H1.84615V18.619H0.923077V17.5238H0V1.09524V0H0.923077Z" fill="#242D56"/>
<path d="M0.923065 1.09521H18.4615H19.3846V2.19045H20.3077V3.28569H21.2308V4.38093H22.1538V5.47617H23.0769V21.9047H6.46153V23H5.53845V21.9047H4.61537V20.8095H3.6923V19.7143H2.76922V18.619H1.84614V17.5238H0.923065V1.09521Z" fill="#3667A8"/>
<path d="M1.84616 17.5238V2.19049H18.4615V3.28573H19.3846V4.38097H20.3077V5.4762H21.2308V6.57144H22.1539V9.85716H19.3846V7.66668H18.4615V6.57144H17.5385V5.4762H16.6154V4.38097H4.61539V16.4286H6.46154V18.6191H19.3846V16.4286H22.1539V21.9048H5.53847V20.8095H4.61539V19.7143H3.69231V18.6191H2.76924V17.5238H1.84616Z" fill="#59B0F7"/>
<path d="M7.38461 14.2381V7.66669H15.6923V8.76193H16.6154V16.4286H9.23077V15.3334H8.30769V14.2381H7.38461Z" fill="#59B0F7"/>
<path d="M19.3846 14.2381V12.0476H22.1538V14.2381H19.3846Z" fill="#59B0F7"/>
</svg>
