<svg width="44" height="52" viewBox="0 0 44 52" fill="none" xmlns="http://www.w3.org/2000/svg">
<path d="M41.5 39.0742L41.0039 39.3643L23.0039 49.8643L22.502 50.1562L21.999 49.8652L2.99902 38.8652L2.5127 38.584L2.5 38.0225L2 16.0225L1.98633 15.4307L2.49902 15.1348L11.5 9.92285V1H32.5V9.65234L33.709 9.85449L34.0195 8.30371L34.3057 6.87305L35.5371 7.65625L41.0371 11.1562L41.7979 11.6406L41.3945 12.4473L40.2891 14.6572L41.0547 15.168L41.5 15.4648V39.0742Z" fill="#B2CDFA" stroke="#1B1A30" stroke-width="2"/>
<path d="M22.875 10.8506L35.875 18.3506L36.2637 18.5742L36.25 19.0234L35.75 35.0234L35.7363 35.4473L35.3662 35.6543L22.8662 42.6543L22.5137 42.8516L22.1543 42.666L8.6543 35.666L8.25 35.4561V19.0723L8.61719 18.8545L22.1172 10.8545L22.4951 10.6309L22.875 10.8506Z" fill="#B2CDFA" stroke="#1B1A30" stroke-width="1.5"/>
<path d="M22.7402 26.7497L22.3574 11.1809L36.0048 18.5897L22.7402 26.7497Z" fill="#1B1A30"/>
<path d="M7.5 40.2857L40.5 21V25.3393L10 41.7321L7.5 40.2857Z" fill="#9FB4F3" fill-opacity="0.6"/>
<path d="M11.5 42.5L40.5 28.2321V38.3571L21 48L16.5 45.5L11.5 42.5Z" fill="#9FB4F3" fill-opacity="0.6"/>
</svg>
