<svg width="24" height="23" viewBox="0 0 24 23" fill="none" xmlns="http://www.w3.org/2000/svg">
<path d="M2.28571 21.0834V13.4167H3.42856V12.4584H4.57142V10.5417H2.28571V4.79169H3.42856V3.83335H4.57142V2.87502H6.85713V1.91669H11.4286V2.87502H12.5714V3.83335H14.8571V9.58335H13.7143V10.5417H12.5714V11.5H11.4286V12.4584H13.7143V13.4167H16V21.0834H2.28571Z" fill="#B6B3B3"/>
<rect x="1.14288" y="13.4167" width="1.14286" height="7.66667" fill="#AC97AA"/>
<rect x="11.4286" y="11.5" width="1.14286" height="0.958333" fill="#AC97AA"/>
<rect x="13.7143" y="9.58331" width="1.14286" height="0.958333" fill="#AC97AA"/>
<rect x="12.5714" y="2.875" width="1.14286" height="0.958333" fill="#AC97AA"/>
<rect x="8" y="0.958313" width="1.14286" height="0.958333" fill="#AC97AA"/>
<rect x="5.71429" y="1.91669" width="1.14286" height="0.958333" fill="#AC97AA"/>
<rect x="2.28571" y="3.83331" width="1.14286" height="0.958333" fill="#AC97AA"/>
<rect x="1.14288" y="5.75" width="1.14286" height="4.79167" fill="#403946"/>
<rect x="1.14288" y="4.79169" width="1.14286" height="0.958333" fill="#4A414D"/>
<rect x="10.2857" y="0.958313" width="1.14286" height="0.958333" fill="#4A414D"/>
<rect x="14.8571" y="9.58331" width="1.14286" height="0.958333" fill="#4A414D"/>
<rect x="1.14288" y="21.0833" width="13.7143" height="0.958333" fill="#4A414D"/>
<rect x="14.8571" y="21.0833" width="1.14286" height="0.958333" fill="#4D4857"/>
<rect y="21.0833" width="1.14286" height="0.958333" fill="#272732"/>
<rect x="16" y="21.0833" width="1.14286" height="0.958333" fill="#2A3037"/>
<rect y="16.2917" width="1.14286" height="4.79167" fill="#4A414D"/>
<rect y="13.4167" width="1.14286" height="1.91667" fill="#4A414D"/>
<rect y="15.3333" width="1.14286" height="0.958333" fill="#403946"/>
<rect x="1.14288" y="12.4583" width="1.14286" height="0.958333" fill="#5A5763"/>
<rect x="2.28571" y="12.4583" width="1.14286" height="0.958333" fill="#8D8C9B"/>
<rect x="3.42859" y="2.875" width="1.14286" height="0.958333" fill="#8D8C9B"/>
<rect x="3.42859" y="11.5" width="1.14286" height="0.958333" fill="#5A5763"/>
<rect x="3.42859" y="10.5417" width="1.14286" height="0.958333" fill="#7A7077"/>
<rect x="2.28571" y="10.5417" width="1.14286" height="0.958333" fill="#403946"/>
<rect x="1.14288" y="3.83331" width="1.14286" height="0.958333" fill="#363543"/>
<rect x="2.28571" y="2.875" width="1.14286" height="0.958333" fill="#363543"/>
<rect x="4.57141" y="1.91669" width="1.14286" height="0.958333" fill="#4D4857"/>
<rect x="5.71429" y="0.958313" width="1.14286" height="0.958333" fill="#2A3037"/>
<rect x="6.85712" y="0.958313" width="1.14286" height="0.958333" fill="#6F6364"/>
<rect x="6.85715" width="1.14286" height="0.958333" fill="#2A3037"/>
<rect x="9.14288" y="0.958313" width="1.14286" height="0.958333" fill="#7F7C8B"/>
<rect x="11.4286" y="1.91669" width="1.14286" height="0.958333" fill="#7A7077"/>
<rect x="13.7143" y="2.875" width="1.14286" height="0.958333" fill="#4D4857"/>
<rect x="14.8571" y="3.83331" width="1.14286" height="0.958333" fill="#5A5763"/>
<rect x="14.8571" y="4.79169" width="1.14286" height="0.958333" fill="#7A7077"/>
<rect x="14.8571" y="5.75" width="1.14286" height="2.875" fill="#6F6364"/>
<rect x="14.8571" y="8.625" width="1.14286" height="0.958333" fill="#7A7077"/>
<rect x="12.5714" y="10.5417" width="1.14286" height="0.958333" fill="#6F6364"/>
<rect x="12.5714" y="11.5" width="1.14286" height="0.958333" fill="#4D4857"/>
<rect x="13.7143" y="12.4583" width="1.14286" height="0.958333" fill="#8D8C9B"/>
<rect x="14.8571" y="12.4583" width="1.14286" height="0.958333" fill="#6F6364"/>
<rect x="16" y="13.4167" width="1.14286" height="0.958333" fill="#6F6364"/>
<rect x="16" y="15.3333" width="1.14286" height="4.79167" fill="#6F6364"/>
<rect x="16" y="14.375" width="1.14286" height="0.958333" fill="#7A7077"/>
<rect x="16" y="20.125" width="1.14286" height="0.958333" fill="#7A7077"/>
<path d="M19.4286 10.5416V3.83331H21.7143V9.58331H20.5714V10.5416H19.4286Z" fill="#B6B3B3"/>
<rect x="20.5714" y="2.875" width="1.14286" height="0.958333" fill="#4A414D"/>
<rect x="19.4286" y="2.875" width="1.14286" height="0.958333" fill="#7A7077"/>
<rect x="17.1429" y="1.91669" width="1.14286" height="0.958333" fill="#7A7077"/>
<rect x="18.2857" y="2.875" width="1.14286" height="0.958333" fill="#B6B3B3"/>
<rect x="17.1429" y="2.875" width="1.14286" height="0.958333" fill="#8D8C9B"/>
<rect x="18.2857" y="3.83331" width="1.14286" height="0.958333" fill="#8D8C9B"/>
<rect x="16" y="11.5" width="1.14286" height="0.958333" fill="#8D8C9B"/>
<rect x="18.2857" y="12.4583" width="1.14286" height="0.958333" fill="#8D8C9B"/>
<rect x="20.5714" y="12.4583" width="1.14286" height="0.958333" fill="#8D8C9B"/>
<rect x="18.2857" y="1.91669" width="1.14286" height="0.958333" fill="#363543"/>
<rect x="16" y="1.91669" width="1.14286" height="0.958333" fill="#6F6364"/>
<rect x="16" y="0.958313" width="1.14286" height="0.958333" fill="#352B3C"/>
<rect x="14.8571" y="0.958313" width="1.14286" height="0.958333" fill="#272732"/>
<rect x="21.7143" y="2.875" width="1.14286" height="0.958333" fill="#2A3037"/>
<rect x="21.7143" y="3.83331" width="1.14286" height="0.958333" fill="#7F7C8B"/>
<rect x="21.7143" y="4.79169" width="1.14286" height="0.958333" fill="#AC97AA"/>
<rect x="21.7143" y="8.625" width="1.14286" height="0.958333" fill="#AC97AA"/>
<rect x="20.5714" y="9.58331" width="1.14286" height="0.958333" fill="#AC97AA"/>
<rect x="19.4286" y="10.5417" width="1.14286" height="0.958333" fill="#AC97AA"/>
<rect x="17.1429" y="11.5" width="1.14286" height="0.958333" fill="#AC97AA"/>
<rect x="19.4286" y="12.4583" width="1.14286" height="0.958333" fill="#AC97AA"/>
<rect x="19.4286" y="14.375" width="1.14286" height="4.79167" fill="#AC97AA"/>
<rect x="21.7143" y="5.75" width="1.14286" height="2.875" fill="#8D8C9B"/>
<rect x="21.7143" y="9.58331" width="1.14286" height="0.958333" fill="#4D4857"/>
<rect x="20.5714" y="10.5417" width="1.14286" height="0.958333" fill="#403946"/>
<rect x="21.7143" y="10.5417" width="1.14286" height="0.958333" fill="#171623"/>
<rect x="19.4286" y="11.5" width="1.14286" height="0.958333" fill="#5A5763"/>
<rect x="21.7143" y="12.4583" width="1.14286" height="0.958333" fill="#5A5763"/>
<rect x="18.2857" y="11.5" width="1.14286" height="0.958333" fill="#B6B3B3"/>
<rect x="16" y="10.5417" width="1.14286" height="0.958333" fill="#7F7C8B"/>
<rect x="17.1429" y="10.5417" width="2.28571" height="0.958333" fill="#B6B3B3"/>
<rect width="1.91667" height="1.14286" transform="matrix(0 -1 -1 0 20.5714 21.0833)" fill="#B6B3B3"/>
<rect width="6.70833" height="2.28571" transform="matrix(0 -1 -1 0 22.8571 21.0833)" fill="#B6B3B3"/>
<rect x="18.2857" y="9.58331" width="1.14286" height="0.958333" fill="#A79A8E"/>
<rect x="17.1429" y="9.58331" width="1.14286" height="0.958333" fill="#4D4857"/>
<rect x="16" y="9.58331" width="1.14286" height="0.958333" fill="#22222D"/>
<rect x="18.2857" y="4.79169" width="1.14286" height="4.79167" fill="#6F6364"/>
<rect x="17.1429" y="12.4583" width="1.14286" height="0.958333" fill="#363543"/>
<rect x="18.2857" y="13.4167" width="1.14286" height="0.958333" fill="#1F1E27"/>
<rect x="19.4286" y="13.4167" width="3.42857" height="0.958333" fill="#B6B3B3"/>
<rect x="22.8571" y="13.4167" width="1.14286" height="7.66667" fill="#5A5763"/>
<rect x="22.8571" y="12.4583" width="1.14286" height="0.958333" fill="#272732"/>
<rect x="19.4286" y="21.0833" width="1.14286" height="0.958333" fill="#4A414D"/>
<rect x="20.5714" y="21.0833" width="2.28571" height="0.958333" fill="#4D4857"/>
<rect x="22.8571" y="21.0833" width="1.14286" height="0.958333" fill="#2A3037"/>
<rect x="19.4286" y="22.0417" width="2.28571" height="0.958333" fill="#171623"/>
<rect x="22.8571" y="22.0417" width="1.14286" height="0.958333" fill="#171623"/>
<rect x="21.7143" y="22.0417" width="1.14286" height="0.958333" fill="#0E0D14"/>
<rect x="18.2857" y="21.0833" width="1.14286" height="0.958333" fill="#22222D"/>
<rect x="18.2857" y="20.125" width="1.14286" height="0.958333" fill="#363543"/>
<rect x="18.2857" y="17.25" width="1.14286" height="2.875" fill="#2A3037"/>
<rect x="18.2857" y="16.2917" width="1.14286" height="0.958333" fill="#352B3C"/>
<rect x="18.2857" y="15.3333" width="1.14286" height="0.958333" fill="#363543"/>
<rect x="18.2857" y="14.375" width="1.14286" height="0.958333" fill="#2A3037"/>
<rect x="18.2857" y="13.4167" width="1.14286" height="0.958333" fill="#1F1E27"/>
<rect x="1.14288" y="22.0417" width="1.14286" height="0.958333" fill="#0E0D14"/>
<rect x="2.28571" y="22.0417" width="2.28571" height="0.958333" fill="#171623"/>
<rect x="13.7143" y="22.0417" width="1.14286" height="0.958333" fill="#171623"/>
<rect x="16" y="22.0417" width="1.14286" height="0.958333" fill="#171623"/>
<rect x="4.57141" y="22.0417" width="1.14286" height="0.958333" fill="#0E0D14"/>
<rect x="12.5714" y="22.0417" width="1.14286" height="0.958333" fill="#0E0D14"/>
<rect x="14.8571" y="22.0417" width="1.14286" height="0.958333" fill="#0E0D14"/>
<rect x="5.71429" y="22.0417" width="6.85714" height="0.958333" fill="#171623"/>
</svg>
