<svg width="24" height="23" viewBox="0 0 24 23" fill="none" xmlns="http://www.w3.org/2000/svg">
<path d="M6.22222 0H17.7778L24 8.84615V10.6154L17.7778 18.5769H5.33333L0 10.6154V8.84615L6.22222 0Z" fill="#6B4D27"/>
<path d="M11.5556 1.76923V4.42307H7.99999V5.30769H7.11111V6.1923V7.07692H6.22222V7.96153H5.33333V10.6154V11.5H6.22222V12.3846H7.11111V14.1538H7.99999V15.0385H11.5556V16.3654V17.6923H6.22222V16.8077H5.33333V15.0385H4.44444V14.1538H3.55555V12.3846H2.66666V11.5H1.77777V7.96153H2.66666V7.07692H3.55555V5.30769H4.44444V4.42307H5.33333V2.65384H6.22222V1.76923H11.5556Z" fill="#F5D32A"/>
<path d="M12.4444 1.76923V4.42307H16V5.30769H16.8889V6.1923V7.07692H17.7778V7.96153H18.6667V10.6154V11.5H17.7778V12.3846H16.8889V14.1538H16V15.0385H12.4444V16.3654V17.6923H17.7778V16.8077H18.6667V15.0385H19.5556V14.1538H20.4445V12.3846H21.3333V11.5H22.2222V7.96153H21.3333V7.07692H20.4445V5.30769H19.5556V4.42307H18.6667V2.65384H17.7778V1.76923H12.4444Z" fill="#F5D32A"/>
<path d="M15.1111 7.0769H8.88889V7.96152H8V11.5H8.88889V12.3846H14.2222V11.5H15.1111V10.6154H16V8.84614H15.1111V7.0769Z" fill="#F5D32A"/>
<path d="M21.3333 11.5H15.1111V14.1538H12.4445V20.3462H15.1111V23H21.3333V20.3462H24V14.1538H21.3333V11.5Z" fill="#1F1E27"/>
<path d="M16.8889 13.2692C17.7689 13.2692 18.6489 13.2692 19.5556 13.2692C19.5556 14.145 19.5556 15.0208 19.5556 15.9231C20.4356 15.9231 21.3156 15.9231 22.2222 15.9231C22.2222 16.7988 22.2222 17.6746 22.2222 18.5769C21.3422 18.5769 20.4622 18.5769 19.5556 18.5769C19.5556 19.4527 19.5556 20.3285 19.5556 21.2308C18.6756 21.2308 17.7956 21.2308 16.8889 21.2308C16.8889 20.355 16.8889 19.4792 16.8889 18.5769C16.0089 18.5769 15.1289 18.5769 14.2222 18.5769C14.2222 17.7011 14.2222 16.8254 14.2222 15.9231C15.1022 15.9231 15.9822 15.9231 16.8889 15.9231C16.8889 15.0473 16.8889 14.1715 16.8889 13.2692Z" fill="#BCBFD0"/>
</svg>
