<svg width="24" height="23" viewBox="0 0 24 23" fill="none" xmlns="http://www.w3.org/2000/svg">
<path d="M7.63635 7.1875V5.75H8.72726V7.1875H7.63635Z" fill="#AC97AA"/>
<path d="M6.54544 10.0625V8.625H7.63635V10.0625H6.54544Z" fill="#AC97AA"/>
<path d="M6.54544 15.8125V14.375H7.63635V15.8125H6.54544Z" fill="#AC97AA"/>
<path d="M15.2727 11.5V10.0625H16.3636V11.5H15.2727Z" fill="#AC97AA"/>
<path d="M21.8182 4.3125V2.875H22.9091V4.3125H21.8182Z" fill="#AC97AA"/>
<path d="M3.27274 1.4375V0H4.36364V1.4375H3.27274Z" fill="#4A414D"/>
<path d="M4.36365 1.4375V0H19.6364V1.4375H4.36365Z" fill="#7A7077"/>
<path d="M1.09091 2.875H0V21.5625H1.09091V2.875Z" fill="#6F6364"/>
<path d="M4.36364 20.125H3.27273V21.5625H4.36364V20.125Z" fill="#6F6364"/>
<path d="M20.7273 21.5625H19.6364V20.125H20.7273V21.5625Z" fill="#6F6364"/>
<path d="M24 20.125H22.9091V2.875H24V20.125Z" fill="#6F6364"/>
<path d="M20.7273 1.4375H19.6364V0H20.7273V1.4375Z" fill="#6F6364"/>
<path d="M3.27273 5.75V4.3125H4.36364V5.75H3.27273Z" fill="#6F6364"/>
<path d="M9.81818 12.9375V11.5H10.9091V12.9375H9.81818Z" fill="#6F6364"/>
<path d="M14.1818 11.5H13.0909V10.0625H14.1818V11.5Z" fill="#6F6364"/>
<path d="M5.45455 2.875V1.4375H19.6364V2.875H18.5455V4.3125H17.4545V5.75H16.3636V7.1875H15.2727V8.625H14.1818V10.0625H13.0909V11.5H10.9091V10.0625H9.81818V8.625H8.72728V5.75H7.63637V4.3125H6.54546V2.875H5.45455Z" fill="#B6B3B3"/>
<path d="M1.09091 20.125V2.875H2.18182V4.3125H3.27273V5.75H4.36364V7.1875H5.45455V8.625H6.54546V10.0625H8.72728V11.5H9.81818V12.9375H10.9091V14.375H13.0909V12.9375H14.1818V11.5H16.3636V10.0625H17.4545V8.625H18.5455V7.1875H19.6364V5.75H20.7273V4.3125H22.9091V20.125H21.8182V18.6875H19.6364V17.25H18.5455V15.8125H16.3636V17.25H17.4545V18.6875H18.5455V20.125H19.6364V21.5625H4.36364V20.125H5.45455V18.6875H6.54546V17.25H7.63637V15.8125H8.72728V14.375H6.54546V15.8125H5.45455V17.25H4.36364V18.6875H2.18182V20.125H1.09091Z" fill="#B6B3B3"/>
<path d="M4.36365 1.4375H5.45456V2.875H6.54547V4.3125H7.63637V5.75H6.54547V4.3125H5.45456V2.875H4.36365V1.4375Z" fill="#8D8C9B"/>
<rect x="19.6364" y="1.4375" width="1.09091" height="1.4375" fill="#363543"/>
<rect x="18.5454" y="2.875" width="1.09091" height="1.4375" fill="#3D3036"/>
<rect x="17.4546" y="4.3125" width="1.09091" height="1.4375" fill="#403946"/>
<rect x="16.3636" y="5.75" width="1.09091" height="1.4375" fill="#4A414D"/>
<rect x="13.0909" y="11.5" width="1.09091" height="1.4375" fill="#4A414D"/>
<rect x="10.9091" y="11.5" width="1.09091" height="1.4375" fill="#4A414D"/>
<rect x="15.2727" y="7.1875" width="1.09091" height="1.4375" fill="#4D4857"/>
<rect x="14.1818" y="8.625" width="1.09091" height="1.4375" fill="#5A5763"/>
<rect x="12" y="11.5" width="1.09091" height="1.4375" fill="#7A7077"/>
<rect x="12" y="12.9375" width="1.09091" height="1.4375" fill="#5A5763"/>
<rect x="10.9091" y="12.9375" width="1.09091" height="1.4375" fill="#7F7C8B"/>
<rect x="9.81818" y="10.0625" width="1.09091" height="1.4375" fill="#363543"/>
<rect x="8.72726" y="10.0625" width="1.09091" height="1.4375" fill="#4A414D"/>
<rect x="8.72726" y="8.625" width="1.09091" height="1.4375" fill="#2A3037"/>
<rect x="5.45456" y="7.1875" width="1.09091" height="1.4375" fill="#8D8C9B"/>
<rect x="4.36365" y="5.75" width="1.09091" height="1.4375" fill="#7F7C8B"/>
<rect x="2.18182" y="2.875" width="1.09091" height="1.4375" fill="#4A414D"/>
<rect x="1.09091" y="1.4375" width="1.09091" height="1.4375" fill="#363543"/>
<rect y="1.4375" width="1.09091" height="1.4375" fill="#5A5763"/>
<rect x="1.09091" y="20.125" width="1.09091" height="1.4375" fill="#5A5763"/>
<rect x="2.18182" y="18.6875" width="1.09091" height="1.4375" fill="#8D8C9B"/>
<rect x="4.36365" y="18.6875" width="1.09091" height="1.4375" fill="#5A5763"/>
<rect x="4.36365" y="17.25" width="1.09091" height="1.4375" fill="#5A5763"/>
<rect x="5.45456" y="17.25" width="1.09091" height="1.4375" fill="#4D4857"/>
<rect x="5.45456" y="15.8125" width="1.09091" height="1.4375" fill="#7F7C8B"/>
<rect x="6.54544" y="15.8125" width="1.09091" height="1.4375" fill="#5A5763"/>
<rect x="7.63635" y="14.375" width="1.09091" height="1.4375" fill="#8D8C9B"/>
<rect x="15.2727" y="14.375" width="1.09091" height="1.4375" fill="#8D8C9B"/>
<rect x="16.3636" y="15.8125" width="1.09091" height="1.4375" fill="#5A5763"/>
<rect x="17.4546" y="15.8125" width="1.09091" height="1.4375" fill="#7F7C8B"/>
<rect x="17.4546" y="17.25" width="2.18182" height="1.4375" fill="#4D4857"/>
<rect x="18.5454" y="18.6875" width="1.09091" height="1.4375" fill="#5A5763"/>
<rect x="20.7273" y="18.6875" width="1.09091" height="1.4375" fill="#7F7C8B"/>
<rect x="19.6364" y="18.6875" width="1.09091" height="1.4375" fill="#171623"/>
<rect x="20.7273" y="20.125" width="1.09091" height="1.4375" fill="#0E0D14"/>
<rect x="21.8182" y="20.125" width="1.09091" height="1.4375" fill="#4A414D"/>
<rect x="22.9091" y="20.125" width="1.09091" height="1.4375" fill="#5A5763"/>
<rect x="21.8182" y="21.5625" width="2.18182" height="1.4375" fill="#0E0D14"/>
<rect x="3.27274" y="21.5625" width="17.4545" height="1.4375" fill="#0E0D14"/>
<rect x="2.18182" y="20.125" width="1.09091" height="1.4375" fill="#0E0D14"/>
<rect y="21.5625" width="2.18182" height="1.4375" fill="#0E0D14"/>
<rect x="22.9091" y="1.4375" width="1.09091" height="1.4375" fill="#4D4857"/>
<rect x="21.8182" y="1.4375" width="1.09091" height="1.4375" fill="#272732"/>
<rect x="20.7273" y="2.875" width="1.09091" height="1.4375" fill="#363543"/>
<rect x="19.6364" y="4.3125" width="1.09091" height="1.4375" fill="#4D4857"/>
<rect x="18.5454" y="5.75" width="1.09091" height="1.4375" fill="#5A5763"/>
<rect x="17.4546" y="7.1875" width="1.09091" height="1.4375" fill="#7F7C8B"/>
<rect x="16.3636" y="8.625" width="1.09091" height="1.4375" fill="#8D8C9B"/>
<rect x="14.1818" y="10.0625" width="1.09091" height="1.4375" fill="#272732"/>
</svg>
