<svg width="24" height="23" viewBox="0 0 24 23" fill="none" xmlns="http://www.w3.org/2000/svg">
<rect x="23" y="11" width="1" height="2" fill="#363543"/>
<rect x="16" y="9" width="1" height="1" fill="#8D8C9B"/>
<rect x="18" y="7" width="1" height="1" fill="#8D8C9B"/>
<rect x="18" y="3" width="1" height="1" fill="#8D8C9B"/>
<rect x="20" y="4" width="1" height="2" fill="#8D8C9B"/>
<rect x="20" y="10" width="1" height="1" fill="#8D8C9B"/>
<rect x="7" y="12" width="1" height="1" fill="#363543"/>
<rect x="16" y="11" width="1" height="2" fill="#403946"/>
<rect x="7" y="10" width="1" height="1" fill="#363543"/>
<rect x="10" y="7" width="1" height="1" fill="#363543"/>
<rect y="13" width="1" height="1" fill="#352B3C"/>
<rect x="1" y="13" width="1" height="1" fill="#6F6364"/>
<rect x="2" y="13" width="1" height="1" fill="#5A5763"/>
<rect x="3" y="13" width="1" height="1" fill="#7F7C8B"/>
<rect x="4" y="14" width="1" height="1" fill="#7F7C8B"/>
<rect x="4" y="15" width="1" height="1" fill="#272732"/>
<rect x="4" y="16" width="1" height="1" fill="#403946"/>
<rect x="4" y="17" width="1" height="1" fill="#8D8C9B"/>
<rect x="17" y="19" width="1" height="1" fill="#8D8C9B"/>
<rect x="20" y="18" width="1" height="1" fill="#8D8C9B"/>
<rect x="18" y="15" width="1" height="1" fill="#8D8C9B"/>
<rect x="20" y="17" width="1" height="1" fill="#363543"/>
<rect x="23" y="13" width="1" height="1" fill="#272732"/>
<rect x="21" y="4" width="1" height="1" fill="#272732"/>
<rect x="18" y="2" width="1" height="1" fill="#363543"/>
<rect x="19" y="15" width="1" height="1" fill="#171623"/>
<rect x="19" y="7" width="1" height="1" fill="#171623"/>
<rect x="19" y="17" width="1" height="1" fill="#8D8C9B"/>
<rect x="21" y="18" width="1" height="1" fill="#2A3037"/>
<rect x="19" y="16" width="1" height="1" fill="#2A3037"/>
<rect x="23" y="10" width="1" height="1" fill="#2A3037"/>
<rect x="21" y="5" width="1" height="1" fill="#2A3037"/>
<rect x="14" y="3" width="1" height="1" fill="#2A3037"/>
<rect x="9" y="15" width="1" height="1" fill="#2A3037"/>
<rect x="8" y="14" width="1" height="1" fill="#2A3037"/>
<rect x="7" y="11" width="1" height="1" fill="#2A3037"/>
<rect x="3" y="18" width="1" height="1" fill="#8D8C9B"/>
<rect x="3" y="17" width="1" height="1" fill="#4A414D"/>
<rect x="2" y="18" width="1" height="1" fill="#4A414D"/>
<rect x="3" y="19" width="1" height="1" fill="#7A7077"/>
<rect x="6" y="19" width="1" height="1" fill="#7A7077"/>
<rect x="9" y="19" width="1" height="1" fill="#7A7077"/>
<rect x="10" y="16" width="1" height="1" fill="#6F6364"/>
<rect x="16" y="13" width="1" height="1" fill="#6F6364"/>
<rect x="8" y="8" width="1" height="1" fill="#6F6364"/>
<rect x="13" y="2" width="1" height="1" fill="#6F6364"/>
<rect x="10" y="2" width="1" height="1" fill="#6F6364"/>
<rect x="11" width="2" height="1" fill="#6F6364"/>
<rect x="11" y="16" width="1" height="1" fill="#4A414D"/>
<rect x="13" y="7" width="1" height="1" fill="#4A414D"/>
<rect x="15" y="14" width="1" height="1" fill="#4A414D"/>
<rect x="17" y="3" width="1" height="1" fill="#4A414D"/>
<rect x="16" y="4" width="1" height="1" fill="#4A414D"/>
<rect x="15" y="4" width="1" height="1" fill="#403946"/>
<rect x="13" width="1" height="1" fill="#403946"/>
<rect x="10" width="1" height="1" fill="#4D4857"/>
<rect x="8" y="4" width="1" height="1" fill="#4D4857"/>
<rect x="20" y="9" width="1" height="1" fill="#352B3C"/>
<rect x="12" y="16" width="1" height="1" fill="#4D4857"/>
<rect x="13" y="16" width="1" height="1" fill="#7A7077"/>
<rect x="19" y="14" width="1" height="1" fill="#6F6364"/>
<rect x="19" y="6" width="1" height="1" fill="#6F6364"/>
<rect x="19" y="3" width="1" height="1" fill="#7A7077"/>
<rect x="13" y="1" width="1" height="1" fill="#7A7077"/>
<rect x="10" y="1" width="1" height="1" fill="#7F7C8B"/>
<rect x="20" y="13" width="1" height="1" fill="#7A7077"/>
<rect x="13" y="20" width="1" height="1" fill="#7A7077"/>
<rect x="18" y="20" width="1" height="1" fill="#7A7077"/>
<rect x="14" y="19" width="1" height="1" fill="#6F6364"/>
<rect x="10" y="22" width="1" height="1" fill="#7A7077"/>
<rect x="7" y="18" width="1" height="1" fill="#8D8C9B"/>
<rect x="8" y="15" width="1" height="1" fill="#8D8C9B"/>
<rect x="14" y="7" width="1" height="1" fill="#8D8C9B"/>
<rect x="15" y="8" width="1" height="1" fill="#7F7C8B"/>
<rect x="19" y="9" width="1" height="1" fill="#7F7C8B"/>
<rect x="7" y="14" width="1" height="1" fill="#8D8C9B"/>
<rect x="7" y="9" width="1" height="1" fill="#8D8C9B"/>
<rect x="11" y="6" width="2" height="1" fill="#8D8C9B"/>
<rect x="9" y="7" width="1" height="1" fill="#8D8C9B"/>
<rect x="6" y="11" width="1" height="1" fill="#8D8C9B"/>
<rect x="7" y="13" width="1" height="1" fill="#5A5763"/>
<rect x="16" y="10" width="1" height="1" fill="#5A5763"/>
<rect x="19" y="8" width="1" height="1" fill="#363543"/>
<rect x="3" y="6" width="1" height="1" fill="#272732"/>
<rect x="4" y="2" width="2" height="1" fill="#352B3C"/>
<rect x="4" y="3" width="2" height="1" fill="#8D8C9B"/>
<rect x="4" y="4" width="2" height="1" fill="#B6B3B3"/>
<rect x="11" y="1" width="2" height="4" fill="#B6B3B3"/>
<rect x="3" y="3" width="1" height="1" fill="#272732"/>
<rect x="6" y="3" width="1" height="1" fill="#363543"/>
<rect x="7" y="4" width="1" height="1" fill="#363543"/>
<rect x="9" y="3" width="1" height="1" fill="#363543"/>
<rect x="6" y="4" width="1" height="1" fill="#8D8C9B"/>
<rect x="14" y="4" width="1" height="1" fill="#8D8C9B"/>
<rect x="13" y="3" width="1" height="1" fill="#8D8C9B"/>
<rect x="10" y="3" width="1" height="1" fill="#8D8C9B"/>
<rect x="9" y="4" width="1" height="1" fill="#8D8C9B"/>
<rect x="2" y="5" width="1" height="1" fill="#352B3C"/>
<rect x="3" y="5" width="1" height="1" fill="#7F7C8B"/>
<rect x="4" y="6" width="1" height="1" fill="#7F7C8B"/>
<rect x="4" y="7" width="1" height="1" fill="#171623"/>
<rect x="5" y="7" width="1" height="1" fill="#AC97AA"/>
<rect x="8" y="18" width="1" height="1" fill="#AC97AA"/>
<rect x="9" y="16" width="1" height="1" fill="#AC97AA"/>
<rect x="6" y="10" width="1" height="1" fill="#AC97AA"/>
<rect x="10" y="6" width="1" height="1" fill="#AC97AA"/>
<rect x="15" y="15" width="1" height="1" fill="#AC97AA"/>
<rect x="16" y="14" width="1" height="1" fill="#AC97AA"/>
<rect x="18" y="8" width="1" height="1" fill="#AC97AA"/>
<rect x="17" y="4" width="1" height="1" fill="#AC97AA"/>
<rect x="4" y="8" width="1" height="1" fill="#363543"/>
<rect x="3" y="9" width="1" height="1" fill="#363543"/>
<rect x="4" y="8" width="1" height="1" fill="#363543"/>
<rect x="2" y="4" width="1" height="1" fill="#242630"/>
<rect x="3" y="4" width="1" height="1" fill="#8D8C9B"/>
<rect x="4" y="9" width="1" height="1" fill="#8D8C9B"/>
<rect x="3" y="10" width="1" height="1" fill="#8D8C9B"/>
<rect x="2" y="10" width="1" height="1" fill="#7F7C8B"/>
<rect x="1" y="10" width="1" height="1" fill="#8D8C9B"/>
<rect y="10" width="1" height="1" fill="#4D4857"/>
<rect x="4" y="5" width="16" height="1" fill="#B6B3B3"/>
<rect x="5" y="6" width="5" height="1" fill="#B6B3B3"/>
<rect x="6" y="7" width="3" height="1" fill="#B6B3B3"/>
<rect x="5" y="8" width="3" height="1" fill="#B6B3B3"/>
<rect x="10" y="4" width="1" height="1" fill="#B6B3B3"/>
<rect x="13" y="4" width="1" height="1" fill="#B6B3B3"/>
<rect x="18" y="4" width="2" height="1" fill="#B6B3B3"/>
<rect x="13" y="6" width="6" height="1" fill="#B6B3B3"/>
<rect x="15" y="7" width="3" height="1" fill="#B6B3B3"/>
<rect x="16" y="8" width="2" height="1" fill="#B6B3B3"/>
<rect x="17" y="9" width="2" height="1" fill="#B6B3B3"/>
<rect x="17" y="10" width="3" height="1" fill="#B6B3B3"/>
<rect x="17" y="11" width="6" height="1" fill="#B6B3B3"/>
<rect x="17" y="12" width="6" height="1" fill="#B6B3B3"/>
<rect x="17" y="13" width="3" height="1" fill="#B6B3B3"/>
<rect x="17" y="14" width="2" height="1" fill="#B6B3B3"/>
<rect x="5" y="9" width="2" height="1" fill="#B6B3B3"/>
<rect x="4" y="10" width="2" height="1" fill="#B6B3B3"/>
<rect y="11" width="1" height="2" fill="#5A5763"/>
<rect x="1" y="11" width="5" height="2" fill="#B6B3B3"/>
<rect x="1" y="14" width="2" height="1" fill="#0E0D14"/>
<rect x="4" y="13" width="3" height="1" fill="#B6B3B3"/>
<rect x="5" y="14" width="2" height="1" fill="#B6B3B3"/>
<rect x="18" y="19" width="2" height="1" fill="#B6B3B3"/>
<rect x="4" y="19" width="2" height="1" fill="#B6B3B3"/>
<rect x="11" y="20" width="2" height="3" fill="#B6B3B3"/>
<rect x="10" y="19" width="4" height="1" fill="#B6B3B3"/>
<rect x="9" y="18" width="6" height="1" fill="#B6B3B3"/>
<rect x="5" y="15" width="3" height="1" fill="#B6B3B3"/>
<rect x="4" y="18" width="3" height="1" fill="#B6B3B3"/>
<rect x="17" y="18" width="3" height="1" fill="#B6B3B3"/>
<rect x="5" y="16" width="4" height="1" fill="#B6B3B3"/>
<rect x="14" y="16" width="4" height="1" fill="#B6B3B3"/>
<rect x="16" y="15" width="2" height="1" fill="#B6B3B3"/>
<rect x="5" y="17" width="14" height="1" fill="#B6B3B3"/>
<rect x="3" y="20" width="1" height="1" fill="#0E0D14"/>
<rect x="20" y="20" width="1" height="1" fill="#0E0D14"/>
<rect x="7" y="19" width="1" height="1" fill="#0E0D14"/>
<rect x="8" y="9" width="1" height="1" fill="#0E0D14"/>
<rect x="9" y="8" width="1" height="1" fill="#0E0D14"/>
<rect x="4" y="20" width="2" height="1" fill="#7A7077"/>
<rect x="19" y="20" width="1" height="1" fill="#5A5763"/>
<rect x="10" y="20" width="1" height="2" fill="#7F7C8B"/>
<rect x="13" y="21" width="1" height="2" fill="#6F6364"/>
<rect x="20" y="19" width="1" height="1" fill="#6F6364"/>
<rect x="15" y="18" width="2" height="1" fill="#A79A8E"/>
<rect x="6" y="12" width="1" height="1" fill="#A79A8E"/>
<rect x="18" y="16" width="1" height="1" fill="#A79A8E"/>
<rect x="21" y="13" width="2" height="1" fill="#5A5763"/>
<rect x="21" y="10" width="2" height="1" fill="#7F7C8B"/>
</svg>
